<svg width="1560" height="225" viewBox="0 0 1560 225" fill="none" xmlns="http://www.w3.org/2000/svg">
<path d="M0 4.5345H40.6883V183.325H139.812V220.465H0V4.5345Z" fill="#F9F7F2"/>
<path d="M216.426 4.5345H287.414L344.118 220.465H302.564L290.877 172.961H213.396L201.709 220.465H159.722L216.426 4.5345ZM280.921 135.389L254.517 30.0142H248.89L222.486 135.389H280.921Z" fill="#F9F7F2"/>
<path d="M440.211 4.5345L477.436 192.826H483.063L520.289 4.5345H596.038V220.465H556.649V34.3328H551.022L513.796 220.465H446.271L409.045 34.3328H403.418V220.465H364.029V4.5345H440.211Z" fill="#F9F7F2"/>
<path d="M615.949 138.196V86.3724C615.949 30.6622 649.278 0 703.385 0C756.626 0 786.926 30.2301 786.926 78.5987V79.8945H746.671V77.3031C746.671 54.4145 732.386 36.7083 703.385 36.7083C674.384 36.7083 657.07 55.71 657.07 85.9404V139.059C657.07 169.29 674.384 189.156 704.251 189.156C734.118 189.156 747.103 171.881 747.103 147.697V144.674H695.161V110.125H786.926V220.681H749.268V199.952H743.641C739.312 210.317 729.356 225 696.027 225C651.01 224.568 615.949 193.906 615.949 138.196Z" fill="#F9F7F2"/>
<path d="M806.836 142.298V2.37519H847.525V143.594C847.525 169.937 863.107 186.348 891.243 186.348C919.379 186.348 934.961 170.369 934.961 143.594V2.37519H975.65V142.298C975.65 191.531 944.051 222.625 890.81 222.625C838.435 222.625 806.836 191.962 806.836 142.298Z" fill="#F9F7F2"/>
<path d="M1052.7 4.5345H1123.68L1180.39 220.465H1138.4L1126.71 172.961H1049.23L1037.55 220.465H995.56L1052.7 4.5345ZM1117.19 135.389L1090.79 30.0142H1085.16L1058.76 135.389H1117.19Z" fill="#F9F7F2"/>
<path d="M1200.3 4.10276H1294.23C1334.92 4.10276 1361.75 26.9913 1361.75 61.9721V65.859C1361.75 91.7707 1347.9 107.318 1329.72 115.091V120.706C1346.17 121.569 1355.69 132.798 1355.69 150.072V220.897H1315.01V156.118C1315.01 146.185 1310.24 139.276 1298.12 139.276H1241.42V220.897H1200.3V4.10276ZM1289.9 101.703C1308.95 101.703 1320.63 90.4752 1320.63 73.2007V70.1776C1320.63 52.9031 1309.38 41.6745 1289.9 41.6745H1240.99V102.135H1289.9V101.703Z" fill="#F9F7F2"/>
<path d="M1381.66 184.621H1410.23V40.379H1381.66V4.5345H1470.83C1528.83 4.5345 1560 34.3329 1560 92.2024V132.797C1560 190.667 1529.27 220.465 1470.83 220.465H1381.66V184.621ZM1471.26 183.757C1504.16 183.757 1518.88 166.051 1518.88 134.525V91.3387C1518.88 59.8127 1504.16 42.1063 1471.26 42.1063H1450.92V184.189H1471.26V183.757Z" fill="#F9F7F2"/>
</svg>
